<svg viewBox="30 6 190 330" xmlns="http://www.w3.org/2000/svg"><path fill="#141416" d="M 180.3 28.1 L 180.8 28.9 Q 183.0 33.0 181.9 37.5 L 161.6 122.4 Q 160.0 129.0 159.6 135.8 L 159.3 139.7 Q 159.0 144.0 160.3 148.1 L 160.7 148.9 Q 162.0 153.0 164.7 156.3 L 166.9 159.1 Q 171.0 164.0 176.4 167.4 L 192.6 177.6 Q 198.0 181.0 198.9 187.3 L 199.1 188.7 Q 200.0 195.0 196.0 199.9 L 195.1 201.1 Q 191.0 206.0 186.4 210.4 L 96.2 296.2 Q 88.0 304.0 79.0 310.8 L 72.0 316.0 Q 68.0 319.0 67.1 314.1 L 66.9 312.9 Q 66.0 308.0 67.2 303.1 L 81.6 244.6 Q 85.0 231.0 87.2 217.2 L 89.2 204.2 Q 90.0 199.0 88.2 194.1 L 87.8 192.9 Q 86.0 188.0 82.5 184.1 L 81.0 182.5 Q 77.0 178.0 71.8 174.8 L 56.8 165.6 Q 51.0 162.0 50.1 155.3 L 49.9 153.8 Q 49.0 147.0 53.9 142.3 L 174.6 27.2 Q 178.0 24.0 180.3 28.1 Z"/></svg>